<?xml version="1.0" encoding="UTF-8" standalone="no"?>
<!DOCTYPE svg PUBLIC "-//W3C//DTD SVG 1.1//EN" "http://www.w3.org/Graphics/SVG/1.1/DTD/svg11.dtd">
<svg version="1.1" xmlns="http://www.w3.org/2000/svg" xmlns:xlink="http://www.w3.org/1999/xlink" preserveAspectRatio="xMidYMid meet" viewBox="262.2432432432434 232.0630630630629 53.16575675675659 53.99999999999997" width="49.17" height="50"><defs><path d="M292.17 233.37L293.44 233.6L294.68 233.9L295.9 234.26L297.09 234.68L298.26 235.15L299.39 235.69L300.5 236.27L301.57 236.91L302.6 237.6L303.6 238.34L304.56 239.12L305.47 239.96L306.35 240.83L307.18 241.75L307.97 242.71L308.71 243.71L309.4 244.74L310.04 245.81L310.62 246.91L311.15 248.05L311.27 248.32L311.01 248.45L311.01 247.98L281.06 258.06L311.01 267.32L311.01 267.27L311.35 267.41L312.41 264.48L312.41 264.5L312.05 265.72L311.63 266.91L311.15 268.08L310.62 269.21L310.04 270.32L309.4 271.39L308.71 272.42L307.97 273.42L307.18 274.38L306.35 275.29L305.47 276.17L304.56 277L303.6 277.79L302.6 278.53L301.57 279.22L300.5 279.85L299.39 280.44L298.26 280.97L297.09 281.45L295.9 281.87L294.68 282.22L293.44 282.52L292.17 282.76L290.88 282.93L289.57 283.03L288.24 283.06L286.92 283.03L285.61 282.93L284.32 282.76L283.05 282.52L281.81 282.22L280.59 281.87L279.39 281.45L278.23 280.97L277.09 280.44L275.99 279.85L274.92 279.22L273.89 278.53L272.89 277.79L271.93 277L271.01 276.17L270.14 275.29L269.3 274.38L268.52 273.42L267.78 272.42L267.09 271.39L266.45 270.32L265.87 269.21L265.33 268.08L264.86 266.91L264.44 265.72L264.08 264.5L263.78 263.26L263.55 261.99L263.38 260.7L263.28 259.39L263.24 258.06L263.28 256.74L263.38 255.43L263.55 254.14L263.78 252.87L264.08 251.63L264.44 250.41L264.86 249.21L265.33 248.05L265.87 246.91L266.45 245.81L267.09 244.74L267.78 243.71L268.52 242.71L269.3 241.75L270.14 240.83L271.01 239.96L271.93 239.12L272.89 238.34L273.89 237.6L274.92 236.91L275.99 236.27L277.09 235.69L278.23 235.15L279.39 234.68L280.59 234.26L281.81 233.9L283.05 233.6L284.32 233.37L285.61 233.2L286.92 233.1L288.24 233.06L289.57 233.1L290.88 233.2L290.88 233.2L292.17 233.37Z" id="bKLTfJEe3"></path></defs><g><g><use xlink:href="#bKLTfJEe3" opacity="1" fill="#ffeb33" fill-opacity="1"></use></g></g></svg>